<svg width="20" height="21" viewBox="0 0 20 21" fill="none" xmlns="http://www.w3.org/2000/svg">
<path d="M6 13.4521V15.4521M10 9.45215V15.4521M14 5.45215V15.4521M5.8 19.4521H14.2C15.8802 19.4521 16.7202 19.4521 17.362 19.1252C17.9265 18.8375 18.3854 18.3786 18.673 17.8141C19 17.1724 19 16.3323 19 14.6521V6.25215C19 4.57199 19 3.73191 18.673 3.09018C18.3854 2.52569 17.9265 2.06675 17.362 1.77913C16.7202 1.45215 15.8802 1.45215 14.2 1.45215H5.8C4.11984 1.45215 3.27976 1.45215 2.63803 1.77913C2.07354 2.06675 1.6146 2.52569 1.32698 3.09018C1 3.73191 1 4.57199 1 6.25215V14.6521C1 16.3323 1 17.1724 1.32698 17.8141C1.6146 18.3786 2.07354 18.8375 2.63803 19.1252C3.27976 19.4521 4.11984 19.4521 5.8 19.4521Z" stroke="white" stroke-width="2" stroke-linecap="round" stroke-linejoin="round"/>
</svg>
