<svg width="18" height="18" viewBox="0 0 18 18" fill="none" xmlns="http://www.w3.org/2000/svg">
<path d="M2.3077 17.9521C1.80257 17.9521 1.375 17.7771 1.025 17.4271C0.675 17.0771 0.5 16.6495 0.5 16.1444V2.75985C0.5 2.25472 0.675 1.82715 1.025 1.47715C1.375 1.12715 1.80257 0.952148 2.3077 0.952148H8.2596C8.47242 0.952148 8.65062 1.02395 8.7942 1.16755C8.9378 1.31113 9.0096 1.48933 9.0096 1.70215C9.0096 1.91497 8.9378 2.09317 8.7942 2.23675C8.65062 2.38033 8.47242 2.45212 8.2596 2.45212H2.3077C2.23077 2.45212 2.16024 2.48417 2.09612 2.54827C2.03202 2.61239 1.99997 2.68292 1.99997 2.75985V16.1444C1.99997 16.2213 2.03202 16.2919 2.09612 16.356C2.16024 16.4201 2.23077 16.4521 2.3077 16.4521H8.2596C8.47242 16.4521 8.65062 16.5239 8.7942 16.6675C8.9378 16.8111 9.0096 16.9893 9.0096 17.2021C9.0096 17.4149 8.9378 17.5931 8.7942 17.7367C8.65062 17.8803 8.47242 17.9521 8.2596 17.9521H2.3077ZM14.6173 10.2021H6.84612C6.63331 10.2021 6.45511 10.1303 6.31152 9.98672C6.16792 9.84314 6.09612 9.66494 6.09612 9.45212C6.09612 9.23931 6.16792 9.06111 6.31152 8.91752C6.45511 8.77394 6.63331 8.70215 6.84612 8.70215H14.6173L12.6942 6.77907C12.5558 6.64061 12.4849 6.4717 12.4817 6.27235C12.4785 6.073 12.5494 5.89576 12.6942 5.74062C12.8391 5.58551 13.0147 5.50538 13.2211 5.50025C13.4275 5.49512 13.6083 5.57012 13.7634 5.72525L16.8576 8.81945C17.0384 9.00022 17.1288 9.21111 17.1288 9.45212C17.1288 9.69314 17.0384 9.90403 16.8576 10.0848L13.7634 13.179C13.6147 13.3277 13.4381 13.4011 13.2336 13.3992C13.0292 13.3973 12.8494 13.3187 12.6942 13.1636C12.5494 13.0085 12.4795 12.8303 12.4846 12.629C12.4898 12.4277 12.5648 12.2547 12.7096 12.1098L14.6173 10.2021Z" fill="#CD0000"/>
</svg>
