<svg width="22" height="23" viewBox="0 0 22 23" fill="none" xmlns="http://www.w3.org/2000/svg">
<path d="M5 14.4521L7 16.4521L11.5 11.9521M7 7.45215V4.65215C7 3.53204 7 2.97199 7.21799 2.54417C7.40973 2.16784 7.71569 1.86188 8.09202 1.67014C8.51984 1.45215 9.07989 1.45215 10.2 1.45215H17.8C18.9201 1.45215 19.4802 1.45215 19.908 1.67014C20.2843 1.86188 20.5903 2.16784 20.782 2.54417C21 2.97199 21 3.53204 21 4.65215V12.2521C21 13.3723 21 13.9323 20.782 14.3601C20.5903 14.7365 20.2843 15.0424 19.908 15.2342C19.4802 15.4521 18.9201 15.4521 17.8 15.4521H15M4.2 21.4521H11.8C12.9201 21.4521 13.4802 21.4521 13.908 21.2342C14.2843 21.0424 14.5903 20.7365 14.782 20.3601C15 19.9323 15 19.3723 15 18.2521V10.6521C15 9.53204 15 8.97199 14.782 8.54417C14.5903 8.16784 14.2843 7.86188 13.908 7.67014C13.4802 7.45215 12.9201 7.45215 11.8 7.45215H4.2C3.0799 7.45215 2.51984 7.45215 2.09202 7.67014C1.71569 7.86188 1.40973 8.16784 1.21799 8.54417C1 8.97199 1 9.53204 1 10.6521V18.2521C1 19.3723 1 19.9323 1.21799 20.3601C1.40973 20.7365 1.71569 21.0424 2.09202 21.2342C2.51984 21.4521 3.07989 21.4521 4.2 21.4521Z" stroke="#79747E" stroke-width="2" stroke-linecap="round" stroke-linejoin="round"/>
</svg>
